<?xml version="1.0" encoding="utf-8"?>
<!-- Generator: Adobe Illustrator 14.0.0, SVG Export Plug-In . SVG Version: 6.00 Build 43363)  -->
<!DOCTYPE svg PUBLIC "-//W3C//DTD SVG 1.1//EN" "http://www.w3.org/Graphics/SVG/1.1/DTD/svg11.dtd">
<svg version="1.1" id="Calque_1" xmlns="http://www.w3.org/2000/svg" xmlns:xlink="http://www.w3.org/1999/xlink" x="0px" y="0px"
	 width="141.73px" height="141.73px" viewBox="0 0 141.73 141.73" enable-background="new 0 0 141.73 141.73" xml:space="preserve">
<rect x="0" y="0" fill="none" width="141.501" height="141.73"/>
<rect x="123.971" y="4.206" transform="matrix(-0.707 -0.7072 0.7072 -0.707 202.3157 125.9711)" fill="#EB6B67" width="6.561" height="33.744"/>
<rect x="123.972" y="39.64" transform="matrix(-0.7071 -0.7071 0.7071 -0.7071 177.2719 186.4533)" fill="#00A099" width="6.56" height="33.745"/>
<rect x="123.977" y="75.071" transform="matrix(-0.7072 -0.707 0.707 -0.7072 152.2445 246.9376)" fill="#00A099" width="6.559" height="33.743"/>
<rect x="123.971" y="110.504" transform="matrix(-0.7071 -0.7071 0.7071 -0.7071 127.1617 307.4255)" fill="#00A099" width="6.56" height="33.745"/>
<rect x="88.539" y="110.505" transform="matrix(-0.7071 -0.7071 0.7071 -0.7071 66.6749 282.372)" fill="#EB6B67" width="6.56" height="33.744"/>
<rect x="53.11" y="110.507" transform="matrix(-0.7072 -0.707 0.707 -0.7072 6.2061 257.3276)" fill="#00A099" width="6.559" height="33.744"/>
<rect x="17.676" y="110.507" transform="matrix(-0.7072 -0.707 0.707 -0.7072 -54.2861 232.2766)" fill="#EB6B67" width="6.559" height="33.744"/>
<rect x="4.066" y="17.774" transform="matrix(0.7071 -0.7071 0.7071 0.7071 -8.7549 20.9718)" fill="#00A099" width="33.744" height="6.56"/>
<rect x="53.105" y="4.181" transform="matrix(-0.7071 -0.7071 0.7071 -0.7071 81.369 75.8111)" fill="#EB6B67" width="6.56" height="33.745"/>
<rect x="74.94" y="17.774" transform="matrix(0.7071 -0.7071 0.7071 0.7071 12.0034 71.0878)" fill="#00A099" width="33.745" height="6.56"/>
<rect x="4.064" y="53.231" transform="matrix(-0.7071 0.7071 -0.7071 -0.7071 75.7013 81.6674)" fill="#EB6B67" width="33.745" height="6.561"/>
<rect x="53.103" y="39.64" transform="matrix(-0.707 -0.7072 0.7072 -0.707 56.2823 136.3413)" fill="#EB6B67" width="6.559" height="33.744"/>
<rect x="74.939" y="53.23" transform="matrix(-0.7071 0.7071 -0.7071 -0.7071 196.6894 31.5486)" fill="#EB6B67" width="33.744" height="6.56"/>
<rect x="4.067" y="88.647" transform="matrix(-0.7071 0.7071 -0.7071 -0.7071 100.7468 142.1233)" fill="#00A099" width="33.744" height="6.56"/>
<rect x="53.105" y="75.057" transform="matrix(-0.7071 -0.7071 0.7071 -0.7071 31.2516 196.8028)" fill="#EB6B67" width="6.56" height="33.744"/>
<rect x="74.938" y="88.65" transform="matrix(-0.7071 0.7071 -0.7071 -0.7071 221.7346 92.0154)" fill="#00A099" width="33.744" height="6.561"/>
</svg>
