<?xml version="1.0" encoding="utf-8"?>
<!-- Generator: Adobe Illustrator 14.0.0, SVG Export Plug-In . SVG Version: 6.00 Build 43363)  -->
<!DOCTYPE svg PUBLIC "-//W3C//DTD SVG 1.1//EN" "http://www.w3.org/Graphics/SVG/1.1/DTD/svg11.dtd">
<svg version="1.1" id="Layer_1" xmlns="http://www.w3.org/2000/svg" xmlns:xlink="http://www.w3.org/1999/xlink" x="0px" y="0px"
	 width="300px" height="424.529px" viewBox="0 0 300 424.529" enable-background="new 0 0 300 424.529" xml:space="preserve">
<path fill="#009F98" d="M220.877,108.896v69.675h-78.641c-9.313,0-16.895,7.572-16.895,16.894v36.906
	c-10.487,0.008-36.674,0.015-36.778,0.028c-1.649,0.105-3.264,0.785-4.522,2.045l-39.942,39.943c0,0-0.016-35.386-0.035-35.57
	c-0.326-3.608-3.354-6.446-7.049-6.446H16.893c-1.516,0-2.738-1.226-2.738-2.738V108.896c0-1.507,1.225-2.738,2.738-2.738h201.246
	C219.654,106.157,220.877,107.389,220.877,108.896z M188.995,145.874c0-3.914-3.171-7.077-7.077-7.077H53.115
	c-3.907,0-7.077,3.163-7.077,7.077c0,3.906,3.17,7.077,7.077,7.077h128.804C185.824,152.951,188.995,149.781,188.995,145.874z
	 M109.073,192.661c0-3.906-3.17-7.077-7.076-7.077H53.115c-3.907,0-7.077,3.171-7.077,7.077c0,3.906,3.17,7.077,7.077,7.077h48.882
	C105.903,199.739,109.073,196.568,109.073,192.661z"/>
<path fill="#EA6B68" d="M285.846,195.464v82.363c0,1.508-1.226,2.738-2.739,2.738h-11.938c-3.723,0-6.767,2.881-7.049,6.531
	c-0.015,0.156-0.028,21.268-0.028,21.268l-25.696-25.697c-0.028-0.027-0.058-0.057-0.078-0.077c-0.105-0.1-0.197-0.185-0.29-0.263
	c-1.245-1.098-2.873-1.762-4.656-1.762h-91.133c-1.508,0-2.739-1.231-2.739-2.738v-82.363c0-1.515,1.232-2.739,2.739-2.739h140.87
	C284.621,192.725,285.846,193.949,285.846,195.464z M252.633,236.646c0-3.905-3.171-7.076-7.076-7.076
	c-3.906,0-7.077,3.171-7.077,7.076c0,3.906,3.171,7.078,7.077,7.078C249.462,243.724,252.633,240.552,252.633,236.646z
	 M219.752,236.646c0-3.905-3.17-7.076-7.077-7.076c-3.905,0-7.075,3.171-7.075,7.076c0,3.906,3.17,7.078,7.075,7.078
	C216.582,243.724,219.752,240.552,219.752,236.646z M186.865,236.646c0-3.905-3.17-7.076-7.076-7.076
	c-3.907,0-7.077,3.171-7.077,7.076c0,3.906,3.17,7.078,7.077,7.078C183.695,243.724,186.865,240.552,186.865,236.646z"/>
<g>
	<path fill="#FFFFFF" d="M245.556,229.569c3.905,0,7.076,3.17,7.076,7.076s-3.171,7.076-7.076,7.076
		c-3.906,0-7.077-3.17-7.077-7.076S241.649,229.569,245.556,229.569z"/>
	<path fill="#FFFFFF" d="M125.343,246.526H91.975l-49.951,49.957c-1.358,1.352-3.163,2.074-5.01,2.074
		c-0.906,0-1.826-0.179-2.704-0.546c-2.646-1.09-4.366-3.674-4.366-6.532v-44.953H16.893C7.573,246.526,0,238.952,0,229.632V108.896
		c0-9.313,7.572-16.893,16.894-16.893h201.246c9.313,0,16.893,7.579,16.893,16.893v69.675h48.075c9.32,0,16.894,7.572,16.894,16.894
		v82.363c0,9.313-7.572,16.894-16.894,16.894h-4.862v30.729c0,2.858-1.727,5.442-4.366,6.539c-0.878,0.36-1.798,0.538-2.71,0.538
		c-1.84,0-3.651-0.723-5.004-2.073l-35.731-35.731h-88.195c-9.313,0-16.894-7.58-16.894-16.895v-31.303H125.343z M220.877,178.571
		v-69.675c0-1.507-1.225-2.738-2.737-2.738H16.893c-1.516,0-2.738,1.231-2.738,2.738v120.736c0,1.516,1.225,2.738,2.738,2.738
		h20.121c3.693,0,6.723,2.838,7.049,6.447c0.021,0.185,0.035,35.569,0.035,35.569l39.942-39.942c1.26-1.26,2.873-1.939,4.522-2.047
		c0.104-0.014,26.291-0.021,36.778-0.027v-36.906c0-9.321,7.58-16.894,16.895-16.894L220.877,178.571L220.877,178.571z
		 M285.846,277.827v-82.363c0-1.515-1.226-2.739-2.739-2.739h-140.87c-1.508,0-2.739,1.225-2.739,2.739v82.363
		c0,1.508,1.232,2.738,2.739,2.738h91.133c1.783,0,3.411,0.664,4.656,1.763c0.093,0.078,0.185,0.163,0.29,0.262
		c0.021,0.021,0.05,0.05,0.078,0.078l25.696,25.697c0,0,0.015-21.111,0.028-21.267c0.282-3.652,3.326-6.533,7.049-6.533h11.938
		C284.621,280.567,285.846,279.335,285.846,277.827z"/>
	<path fill="#FFFFFF" d="M212.675,229.569c3.907,0,7.077,3.17,7.077,7.076s-3.17,7.076-7.077,7.076c-3.905,0-7.075-3.17-7.075-7.076
		S208.769,229.569,212.675,229.569z"/>
	<path fill="#FFFFFF" d="M181.918,138.797c3.906,0,7.076,3.163,7.076,7.077c0,3.906-3.17,7.077-7.076,7.077H53.115
		c-3.907,0-7.077-3.171-7.077-7.077c0-3.914,3.17-7.077,7.077-7.077H181.918z"/>
	<path fill="#FFFFFF" d="M179.788,229.569c3.906,0,7.076,3.17,7.076,7.076s-3.17,7.076-7.076,7.076c-3.907,0-7.077-3.17-7.077-7.076
		C172.71,232.74,175.881,229.569,179.788,229.569z"/>
	<path fill="#FFFFFF" d="M101.996,185.584c3.906,0,7.076,3.171,7.076,7.077c0,3.906-3.17,7.077-7.076,7.077H53.115
		c-3.907,0-7.077-3.171-7.077-7.077c0-3.906,3.17-7.077,7.077-7.077H101.996z"/>
</g>
</svg>
