<?xml version="1.0" encoding="utf-8"?>
<!-- Generator: Adobe Illustrator 14.0.0, SVG Export Plug-In . SVG Version: 6.00 Build 43363)  -->
<!DOCTYPE svg PUBLIC "-//W3C//DTD SVG 1.1//EN" "http://www.w3.org/Graphics/SVG/1.1/DTD/svg11.dtd">
<svg version="1.1" id="Layer_1" xmlns="http://www.w3.org/2000/svg" xmlns:xlink="http://www.w3.org/1999/xlink" x="0px" y="0px"
	 width="300px" height="424.529px" viewBox="0 0 300 424.529" enable-background="new 0 0 300 424.529" xml:space="preserve">
<path fill="#FFFFFF" d="M263.381,142.923C284.013,145.59,300,163.259,300,184.601c0,21.335-15.986,39.003-36.619,41.677v48.267
	c0,5.319-2.731,10.095-7.313,12.784c-2.349,1.377-4.928,2.064-7.517,2.064c-2.5,0-4.992-0.638-7.282-1.92
	c-41.469-23.19-86.327-37.396-133.484-42.295l28.938,79.826c1.638,4.493,0.979,9.521-1.775,13.451
	c-2.746,3.928-7.246,6.27-12.037,6.27H89.11c-6.159,0-11.711-3.893-13.819-9.676l-33.678-92.957
	c-7.175-3.175-12.399-9.965-13.349-18.046h-9.466C8.436,224.047,0,215.618,0,205.255v-41.294c0-10.355,8.437-18.791,18.799-18.791
	h9.465c1.318-11.227,10.893-19.974,22.474-19.974c0,0,46.12-0.202,46.512-0.231c51.021-3.783,99.48-18.328,144.021-43.243
	c4.667-2.609,10.196-2.552,14.799,0.145c4.58,2.688,7.313,7.472,7.313,12.784L263.381,142.923L263.381,142.923z M285.506,184.602
	c0-13.335-9.522-24.48-22.126-27.01v54.012C275.983,209.074,285.506,197.929,285.506,184.602z M248.885,274.545V94.651
	c0-0.102,0-0.188-0.151-0.282c-0.188-0.102-0.297-0.043-0.392,0.007c-44.541,24.908-92.843,39.866-143.658,44.512v91.429
	c50.809,4.639,99.11,19.597,143.658,44.505c0.095,0.051,0.202,0.114,0.392,0.007C248.885,274.733,248.885,274.653,248.885,274.545z
	 M123.077,330.146c0.065-0.096,0.043-0.131,0.021-0.196l-31.147-85.929H57.723l31.19,86.08c0.028,0.073,0.109,0.131,0.195,0.131
	h33.801C122.968,330.231,123.012,330.231,123.077,330.146z M90.19,229.526v-89.834H50.737c-4.492,0-8.146,3.652-8.146,8.146v73.543
	c0,3.312,1.986,6.16,4.834,7.437c1.044,0.441,1.35,0.521,2.799,0.688C50.396,229.511,90.19,229.526,90.19,229.526z M28.097,209.553
	v-49.889h-9.299c-2.378,0-4.306,1.928-4.306,4.297v41.294c0,2.37,1.928,4.298,4.306,4.298H28.097L28.097,209.553z"/>
<path fill="#009F98" d="M248.885,94.651v179.895c0,0.108,0,0.188-0.151,0.282c-0.188,0.108-0.297,0.043-0.392-0.007
	c-44.548-24.908-92.85-39.866-143.658-44.506v-91.428c50.815-4.646,99.117-19.604,143.658-44.512
	c0.095-0.051,0.202-0.108,0.392-0.007C248.885,94.462,248.885,94.549,248.885,94.651z"/>
<path fill="#EA6B68" d="M123.099,329.948c0.021,0.064,0.044,0.102-0.021,0.195c-0.064,0.086-0.109,0.086-0.166,0.086H89.111
	c-0.087,0-0.166-0.058-0.195-0.129l-31.191-86.08h34.229L123.099,329.948z"/>
<path fill="#009F98" d="M90.19,139.692v89.834c0,0-39.794-0.016-39.967-0.021c-1.45-0.166-1.755-0.246-2.799-0.688
	c-2.848-1.275-4.834-4.125-4.834-7.437v-73.543c0-4.493,3.653-8.146,8.146-8.146H90.19L90.19,139.692z"/>
<path fill="#EA6B68" d="M28.097,159.664v49.889h-9.299c-2.378,0-4.306-1.928-4.306-4.297v-41.294c0-2.37,1.928-4.298,4.306-4.298
	H28.097L28.097,159.664z"/>
</svg>
