<?xml version="1.0" encoding="utf-8"?>
<!-- Generator: Adobe Illustrator 14.0.0, SVG Export Plug-In . SVG Version: 6.00 Build 43363)  -->
<!DOCTYPE svg PUBLIC "-//W3C//DTD SVG 1.1//EN" "http://www.w3.org/Graphics/SVG/1.1/DTD/svg11.dtd">
<svg version="1.1" id="Layer_1" xmlns="http://www.w3.org/2000/svg" xmlns:xlink="http://www.w3.org/1999/xlink" x="0px" y="0px"
	 width="300px" height="424.529px" viewBox="0 0 300 424.529" enable-background="new 0 0 300 424.529" xml:space="preserve">
<path fill="#FFFFFF" d="M261.803,351.699c1.323,2.798,0.762,6.122-1.399,8.335c-1.422,1.459-3.346,2.229-5.293,2.229
	c-1.021,0-2.043-0.207-3.013-0.636l-49.543-22.06l-49.543,22.06c-1.917,0.851-4.107,0.851-6.024,0l-49.543-22.06l-49.543,22.059
	c-2.828,1.26-6.145,0.622-8.305-1.592c-2.162-2.213-2.726-5.537-1.399-8.335l39.55-83.659c0.755-1.605,2.065-2.879,3.68-3.604
	l19.794-8.803L67.125,198.49c-0.082-0.133-0.154-0.273-0.229-0.414c-6.773-13.213-10.305-28.106-10.216-43.052
	c0.147-24.464,9.785-47.581,27.144-65.08c17.358-17.506,40.396-27.328,64.858-27.669c25.183-0.354,48.921,9.193,66.842,26.87
	s27.795,41.267,27.795,66.441c0,14.96-3.436,29.261-10.215,42.489c-0.074,0.141-0.148,0.281-0.229,0.414l-34.095,57.145
	l19.675,8.758c1.645,0.695,3.006,1.977,3.798,3.648L261.803,351.699z M239.892,339.983l-29.846-63.135l-18.904-8.416l-22.073,36.996
	c-4.042,6.78-11.17,10.829-19.068,10.829c-7.897,0-15.025-4.049-19.067-10.829l-22.073-36.996l-18.897,8.416l-29.854,63.135
	l34.324-15.286c1.917-0.852,4.106-0.852,6.023,0L150,346.755l49.543-22.059c1.917-0.852,4.107-0.852,6.024,0L239.892,339.983z
	 M220.031,191.116c5.634-11.065,8.483-23.013,8.483-35.53c0-21.178-8.307-41.03-23.385-55.901
	c-15.079-14.871-35.057-22.888-56.25-22.606c-42.422,0.585-77.146,35.59-77.396,78.034c-0.074,12.68,2.774,24.798,8.481,36.004
	l63.675,106.725c1.945,3.257,5.093,3.612,6.357,3.612c1.266,0,4.412-0.355,6.358-3.612L220.031,191.116z"/>
<path fill="#009F98" d="M210.046,276.849l29.847,63.133l-34.324-15.284c-1.917-0.853-4.107-0.853-6.024,0L150,346.755
	l-49.543-22.059c-1.917-0.852-4.107-0.852-6.024,0l-34.323,15.285l29.853-63.133l18.897-8.416l22.073,36.995
	c4.042,6.78,11.17,10.829,19.067,10.829s15.026-4.049,19.068-10.829l22.073-36.995L210.046,276.849z"/>
<path fill="#EA6B68" d="M228.515,155.586c0,12.518-2.851,24.465-8.482,35.531l-63.674,106.725c-1.947,3.257-5.093,3.612-6.358,3.612
	c-1.265,0-4.412-0.355-6.357-3.612L79.968,191.117c-5.706-11.207-8.558-23.324-8.482-36.004
	c0.252-42.444,34.976-77.449,77.396-78.034c21.192-0.281,41.172,7.735,56.249,22.605
	C220.21,114.556,228.515,134.408,228.515,155.586z M183.783,155.586c0-18.631-15.152-33.783-33.783-33.783
	c-18.624,0-33.783,15.152-33.783,33.783c0,18.624,15.159,33.784,33.783,33.784C168.631,189.37,183.783,174.21,183.783,155.586z"/>
<path fill="#FFFFFF" d="M150,121.803c18.631,0,33.783,15.152,33.783,33.783c0,18.624-15.152,33.783-33.783,33.783
	c-18.624,0-33.783-15.159-33.783-33.783C116.217,136.955,131.376,121.803,150,121.803z M168.979,155.586
	c0-10.466-8.513-18.979-18.979-18.979c-10.46,0-18.979,8.513-18.979,18.979c0,10.467,8.521,18.979,18.979,18.979
	C160.467,174.566,168.979,166.053,168.979,155.586z"/>
</svg>
