<?xml version="1.0" encoding="utf-8"?>
<!-- Generator: Adobe Illustrator 14.0.0, SVG Export Plug-In . SVG Version: 6.00 Build 43363)  -->
<!DOCTYPE svg PUBLIC "-//W3C//DTD SVG 1.1//EN" "http://www.w3.org/Graphics/SVG/1.1/DTD/svg11.dtd">
<svg version="1.1" xmlns="http://www.w3.org/2000/svg" xmlns:xlink="http://www.w3.org/1999/xlink" x="0px" y="0px" width="300px"
	 height="424.529px" viewBox="0 0 300 424.529" enable-background="new 0 0 300 424.529" xml:space="preserve">
<g id="Calque_2">
</g>
<g id="Layer_1">
	<path fill="#FFFFFF" d="M264.185,303.396v52.114c0,3.729-3.026,6.755-6.754,6.755h-59.315h-96.23H42.57
		c-3.729,0-6.755-3.025-6.755-6.755v-52.114c0-25.032,19.947-45.486,44.777-46.324c0.243-0.027,34.762,0.998,39.915-36.071
		c-16.766-11.687-29.06-33.093-32.409-58.931c-0.662-0.635-1.217-1.405-1.581-2.303c-1.371-3.345-2.521-6.837-3.432-10.39
		c-4.29-16.833-2.972-34.255,3.708-49.054c6.883-15.239,18.61-25.926,33.024-30.087c3.014-0.871,6.161-1.439,9.369-1.683
		c8.41-4.174,17.313-6.288,26.485-6.288c35.093,0,63.646,30.789,63.646,68.637c0,9.855-1.898,19.38-5.642,28.29
		c-0.397,0.945-0.985,1.742-1.694,2.385c-2.067,16.556-7.876,31.855-16.889,44.055c-4.634,6.275-9.89,11.443-15.597,15.422
		c5.134,37.011,39.665,35.99,39.908,36.019C244.239,257.908,264.185,278.363,264.185,303.396z M250.676,348.755v-45.359
		c0-18.115-14.738-32.854-32.862-32.854c-0.243,0-9.891,0-19.685-4.162l-36.104,51.419c-1.371,1.952-3.183,3.514-5.241,4.587
		c-2.067,1.066-4.377,1.654-6.769,1.654c-4.775,0-9.269-2.337-12.018-6.241l-36.104-51.426c-8.593,3.904-19.46,4.168-19.703,4.168
		c-18.124,0-32.863,14.739-32.863,32.855v45.358h52.562h96.229L250.676,348.755L250.676,348.755z M205.741,133.624
		c0.04-0.905,0.067-1.811,0.067-2.723c0-30.397-22.494-55.127-50.136-55.127c-7.443,0-14.691,1.824-21.527,5.418
		c-0.878,0.459-1.852,0.723-2.837,0.764c-2.669,0.121-5.276,0.547-7.741,1.256c-22.096,6.383-34.356,34.133-27.562,62.085
		c7.296-7.66,12.618-17.104,15.279-27.357c0.912-3.479,3.925-5.965,7.512-6.194c3.574-0.223,6.856,1.851,8.188,5.16
		c0.857,2.147,2.297,4.013,4.162,5.404c2.182,1.628,4.781,2.485,7.518,2.485h46.042
		C192.927,124.795,200.378,128.179,205.741,133.624z M199.331,147.945c0-0.048,0.007-0.095,0.007-0.143
		c-2.506-5.593-8.119-9.497-14.631-9.497h-46.042c-5.675,0-11.064-1.79-15.598-5.167c-0.729-0.548-1.433-1.128-2.094-1.743
		c-4.392,10.483-11.125,19.94-19.65,27.533c1.824,15.874,7.579,30.377,16.367,41.117c9.004,10.997,20.48,17.056,32.322,17.056
		C177.208,217.101,199.331,186.075,199.331,147.945z M150.966,310.03l35.472-50.514c-10.005-7.729-17.171-18.961-19.645-31.844
		c-5.391,1.932-11.018,2.938-16.778,2.938c-5.811,0-11.443-1.039-16.801-2.979c-2.466,12.896-9.626,24.137-19.637,31.877
		l35.478,50.521c0.236,0.33,0.554,0.498,0.96,0.498C150.412,310.528,150.737,310.36,150.966,310.03z"/>
	<path fill="#009F98" d="M250.676,303.396v45.359h-52.561h-96.23H49.324v-45.359c0-18.115,14.739-32.854,32.862-32.854
		c0.243,0,11.111-0.265,19.704-4.168l36.104,51.425c2.749,3.904,7.24,6.242,12.018,6.242c2.392,0,4.7-0.588,6.769-1.655
		c2.06-1.073,3.87-2.634,5.241-4.587l36.104-51.418c9.794,4.161,19.44,4.161,19.685,4.161
		C235.936,270.54,250.676,285.28,250.676,303.396z"/>
	<path fill="#EA6B68" d="M205.81,130.902c0,0.912-0.027,1.817-0.067,2.723c-5.364-5.445-12.813-8.829-21.035-8.829h-46.042
		c-2.734,0-5.336-0.858-7.518-2.485c-1.864-1.392-3.304-3.257-4.161-5.404c-1.331-3.311-4.614-5.384-8.188-5.161
		c-3.587,0.229-6.599,2.715-7.512,6.194c-2.661,10.254-7.984,19.697-15.279,27.357c-6.796-27.952,5.466-55.701,27.562-62.085
		c2.466-0.709,5.073-1.135,7.741-1.256c0.985-0.04,1.959-0.304,2.837-0.764c6.836-3.594,14.084-5.417,21.527-5.417
		C183.316,75.775,205.81,100.504,205.81,130.902z"/>
</g>
</svg>
